<svg xmlns="http://www.w3.org/2000/svg" viewBox="0 0 512 512" width="512" height="512">
  <defs>
    <linearGradient id="bgGrad" x1="0%" y1="0%" x2="100%" y2="100%">
      <stop offset="0%" style="stop-color:#0d7a4e"/>
      <stop offset="100%" style="stop-color:#25D366"/>
    </linearGradient>
    <linearGradient id="shimmer" x1="0%" y1="0%" x2="100%" y2="100%">
      <stop offset="0%" style="stop-color:#ffffff;stop-opacity:0.15"/>
      <stop offset="100%" style="stop-color:#ffffff;stop-opacity:0"/>
    </linearGradient>
  </defs>
  <!-- Background -->
  <rect width="512" height="512" rx="112" fill="url(#bgGrad)"/>
  <!-- Shimmer overlay -->
  <rect width="512" height="512" rx="112" fill="url(#shimmer)"/>
  <!-- Main speech bubble -->
  <path d="M256 108 C155 108 74 176 74 260 C74 301 91 338 121 367 L102 428 L170 403 C196 413 225 418 256 418 C357 418 438 350 438 260 C438 176 357 108 256 108Z" fill="white"/>
  <!-- Double tick marks (WhatsApp style) -->
  <path d="M178 264 L214 302 L304 206" stroke="#25D366" stroke-width="22" stroke-linecap="round" stroke-linejoin="round" fill="none"/>
  <path d="M228 264 L264 302 L354 206" stroke="#25D366" stroke-width="22" stroke-linecap="round" stroke-linejoin="round" fill="none" opacity="0.45"/>
</svg>
