<svg xmlns="http://www.w3.org/2000/svg" viewBox="0 0 100 100">
  <rect width="100" height="100" rx="22" fill="#25D366"/>
  <path fill="white" d="M50 18C32.3 18 18 32.3 18 50c0 5.8 1.6 11.2 4.4 15.8L18 82l16.7-4.3C39.1 80.3 44.4 82 50 82c17.7 0 32-14.3 32-32S67.7 18 50 18zm16.2 44.6c-.7 1.9-3.4 3.5-4.7 3.7-.4.1-.8.1-1.2.1-1.2 0-3.1-.4-7.4-2.2-5.2-2.1-9.5-6.3-12.3-10.4-1.5-2.1-2.4-4.5-2.4-6.7 0-2.5 1-4.7 2.7-6.3.6-.6 1.2-.9 1.8-.9h1.3c.4 0 .9.2 1.3 1.1l2.1 5.1c.2.5.1 1-.1 1.5l-1 1.7c-.2.4-.5.8-.2 1.3 1.3 2.3 3.1 4.2 5.4 5.6.5.3.9.1 1.2-.2l1.5-1.8c.4-.5.9-.7 1.4-.5l5.1 2.4c1 .4 1.1.9 1 1.5z"/>
</svg>
